<svg xmlns="http://www.w3.org/2000/svg" viewBox="0 0 320 320">
  <rect width="320" height="320" rx="64" fill="#FFDE00"/>
  <path d="M 54 122 L 63 133 L 68 134 L 86 134 L 98 131 L 122 120 L 139 114 L 151 112 L 167 112 L 183 116 L 211 129 L 219 131 L 237 131 L 252 126 L 252 123 L 255 116 L 260 114 L 264 121 L 264 124 L 269 124 L 277 127 L 283 133 L 293 147 L 289 151 L 280 157 L 277 157 L 270 154 L 254 154 L 246 156 L 206 172 L 174 187 L 167 188 L 155 181 L 151 176 L 156 173 L 163 166 L 168 156 L 169 152 L 168 142 L 165 136 L 162 135 L 156 138 L 156 140 L 159 146 L 159 151 L 156 158 L 149 165 L 141 169 L 138 175 L 140 181 L 147 188 L 155 193 L 153 195 L 127 203 L 135 210 L 148 207 L 167 200 L 170 200 L 195 212 L 207 215 L 209 206 L 184 196 L 184 193 L 186 193 L 211 181 L 248 166 L 256 164 L 268 164 L 279 168 L 284 167 L 297 158 L 303 151 L 303 143 L 289 124 L 282 118 L 273 115 L 270 110 L 262 103 L 255 103 L 251 105 L 247 109 L 244 114 L 243 118 L 235 121 L 221 121 L 206 116 L 188 107 L 179 104 L 169 102 L 148 102 L 127 107 L 110 114 L 101 119 L 86 124 L 68 125 Z" fill="#000000" fill-rule="evenodd"/>
</svg>